Coordinates
version=1
nRows=6
nColumns=46
inDegrees=yes

Units are S.I. units (second, meters, Newtons, ...)
Angles are in degrees.

endheader
time	pelvis_tilt	pelvis_list	pelvis_rotation	pelvis_tx	pelvis_ty	pelvis_tz	bb_angle	bb_tx	bb_ty	bb_tz	hip_flexion_r	hip_adduction_r	hip_rotation_r	knee_angle_r	knee_angle_r_beta	ankle_angle_r	subtalar_angle_r	mtp_angle_r	crank_angle_r	hip_flexion_l	hip_adduction_l	hip_rotation_l	knee_angle_l	knee_angle_l_beta	ankle_angle_l	subtalar_angle_l	mtp_angle_l	crank_angle_l	lumbar_extension	lumbar_bending	lumbar_rotation	arm_flex_r	arm_add_r	arm_rot_r	elbow_flex_r	pro_sup_r	wrist_flex_r	wrist_dev_r	arm_flex_l	arm_add_l	arm_rot_l	elbow_flex_l	pro_sup_l	wrist_flex_l	wrist_dev_l
      0.00500000	    -19.98758124	      7.28370383	      4.71444724	      0.13180543	      1.10932718	     -0.26940919	      0.00000000	      0.50000000	      0.00000000	      0.25000000	     41.62516842	    -12.32373713	     -1.15068660	     43.24828978	      0.75482505	     18.37152116	     -4.43341285	      0.00000000	      0.00000000	     92.91615549	     -3.53442913	     -4.32212674	    102.58485128	      1.79044342	     22.34310521	      1.27466034	      0.00000000	      0.00000000	    -40.77944346	     -1.57670864	    -12.17477534	     77.98682230	     -5.51030838	     37.43469497	     30.91085725	     41.93231255	      0.00000000	      0.00000000	     74.57550009	    -17.82902698	     31.10239059	     36.42520644	     46.18560647	      0.00000000	      0.00000000
      0.01000000	    -20.00611316	      7.29525825	      4.70974543	      0.13183449	      1.10931693	     -0.26941759	      0.00000000	      0.50000000	      0.00000000	      0.25000000	     41.64879546	    -12.32668341	     -1.13044246	     43.24712782	      0.75480477	     18.35700021	     -4.45450043	      0.00000000	      0.00000000	     92.93103318	     -3.55034312	     -4.34491168	    102.59152331	      1.79055987	     22.33941218	      1.27518757	      0.00000000	      0.00000000	    -40.75628458	     -1.59000340	    -12.17304824	     77.96291266	     -5.27006329	     36.67481660	     30.69222697	     41.90773730	      0.00000000	      0.00000000	     74.47546501	    -17.62320035	     30.46821728	     36.44476278	     45.79414334	      0.00000000	      0.00000000
      0.01500000	    -20.05508350	      7.31793929	      4.67411231	      0.13194037	      1.10916434	     -0.26941187	      0.00000000	      0.50000000	      0.00000000	      0.25000000	     41.72785213	    -12.33437264	     -1.10026442	     43.28018647	      0.75538175	     18.31161240	     -4.49643103	      0.00000000	      0.00000000	     92.98172050	     -3.60036770	     -4.40773869	    102.63290622	      1.79128213	     22.37527744	      1.07954360	      0.00000000	      0.00000000	    -40.70545892	     -1.65115122	    -12.08922704	     77.65636451	     -5.45136007	     35.98634046	     31.56620319	     42.01593582	      0.00000000	      0.00000000	     74.03805448	    -17.59413628	     29.88700426	     37.25997740	     45.76093466	      0.00000000	      0.00000000
      0.02000000	    -19.80784274	      7.13457388	      4.83526627	      0.13222767	      1.10989776	     -0.26944633	      0.00000000	      0.50000000	      0.00000000	      0.25000000	     41.21235461	    -12.26574095	     -1.43517613	     42.97349817	      0.75002903	     18.45860296	     -4.28829471	      0.00000000	      0.00000000	     92.70559279	     -3.49726442	     -4.19334892	    102.59267146	      1.79057991	     22.60119604	      1.87410316	      0.00000000	      0.00000000	    -41.03048133	     -1.37247245	    -12.24951374	     77.51597410	     -5.19264030	     35.11988893	     31.91662758	     41.99201413	      0.00000000	      0.00000000	     74.08388195	    -17.58006401	     28.99504066	     37.43235419	     45.30931333	      0.00000000	      0.00000000
      0.02500000	    -19.98385686	      7.20901367	      4.81691798	      0.13194420	      1.10946635	     -0.26951833	      0.00000000	      0.50000000	      0.00000000	      0.25000000	     41.52997810	    -12.31044431	     -1.22947762	     43.15530409	      0.75320215	     18.35929014	     -4.38975958	      0.00000000	      0.00000000	     92.91868912	     -3.46605212	     -4.29019348	    102.58503418	      1.79044661	     22.32647761	      1.27749955	      0.00000000	      0.00000000	    -40.79430990	     -1.51133243	    -12.17291438	     77.94733149	     -5.56942204	     37.35270458	     30.89876354	     42.27093493	      0.00000000	      0.00000000	     74.62160707	    -17.72801064	     31.26679881	     36.50306808	     45.32625316	      0.00000000	      0.00000000
      0.03000000	    -19.95379536	      7.26104038	      4.83541902	      0.13202303	      1.10959289	     -0.26962805	      0.00000000	      0.50000000	      0.00000000	      0.25000000	     41.49376387	    -12.38082194	     -1.26169948	     43.13152145	      0.75278706	     18.34268719	     -4.36122751	      0.00000000	      0.00000000	     92.87079946	     -3.44273355	     -4.35239030	    102.58638429	      1.79047017	     22.27338735	      1.23570441	      0.00000000	      0.00000000	    -40.82071012	     -1.53230895	    -12.26086114	     77.88695095	     -5.12407975	     35.94186708	     30.63180927	     42.03953225	      0.00000000	      0.00000000	     74.45101477	    -17.31425578	     29.83945937	     36.45303546	     44.64531648	      0.00000000	      0.00000000
